<?xml version="1.0" encoding="utf-8"?>
<svg version="1.1" xmlns="http://www.w3.org/2000/svg" xmlns:xlink="http://www.w3.org/1999/xlink" x="0px" y="0px"
	 viewBox="0 0 128 80" xml:space="preserve">
<g id="XMLID_70_" >
	<g id="XMLID_76_">
		<path fill="currentColor" id="XMLID_80_" d="M64,3.2c0,0,13.8,25.2,13.8,45.7c0,13.3-11.7,22.3-11.7,22.3L64,15.5V3.2z"/>
		<path fill="currentColor" id="XMLID_79_" d="M88.8,14.7L78.5,33.6c0,0-2.5-8.7-3-9.7c0,0,13.9-14.4,16.1-15.2c0,0,1.1,18.3,0,21.1c0,0-5.8,2.6-9.7,5.3
			L88.8,14.7z"/>
		<path fill="currentColor" id="XMLID_78_" d="M73,68.3c0,0,9.5-9.4,6.6-28.7c0,0,12.9-9.2,34-16c0,0-0.4,6.3-13.1,29.7c-12.7,23.4-31,19.8-31,19.8
			S94.9,60,93.1,35.4C93.1,35.4,94.1,55.1,73,68.3z"/>
		<path fill="currentColor" id="XMLID_77_" d="M95.5,64.7c0,0,5.6-7.2,8-10.9c0,0,12.9,4.3,20.5,8.8c0,0-30.1,16.5-49.1,13.2c0,0,8.1,0,18.2-8.8
			l19.6-3.6L95.5,64.7z"/>
	</g>
	<g id="XMLID_71_">
		<path fill="currentColor" id="XMLID_75_" d="M64,3.2c0,0-13.8,25.2-13.8,45.7c0,13.3,11.7,22.3,11.7,22.3L64,15.5V3.2z"/>
		<path fill="currentColor" id="XMLID_74_" d="M39.2,14.7l10.3,18.8c0,0,2.5-8.7,3-9.7c0,0-13.9-14.4-16.1-15.2c0,0-1.1,18.3,0,21.1c0,0,5.8,2.6,9.7,5.3
			L39.2,14.7z"/>
		<path fill="currentColor" id="XMLID_73_" d="M55,68.3c0,0-9.5-9.4-6.6-28.7c0,0-12.9-9.2-34-16c0,0,0.4,6.3,13.1,29.7c12.7,23.4,31,19.8,31,19.8
			S33.1,60,34.9,35.4C34.9,35.4,33.9,55.1,55,68.3z"/>
		<path fill="currentColor" id="XMLID_72_" d="M32.5,64.7c0,0-5.6-7.2-8-10.9c0,0-12.9,4.3-20.5,8.8c0,0,30.1,16.5,49.1,13.2c0,0-8.1,0-18.2-8.8
			l-19.6-3.6L32.5,64.7z"/>
	</g>
</g>
</svg>
